<svg width="75" height="45" viewBox="0 0 75 45" fill="none" xmlns="http://www.w3.org/2000/svg">
<path d="M56.2502 29.9404C56.2502 30.7569 56.9175 31.4324 57.7207 31.2852C59.4351 30.9709 61.0293 30.112 62.2767 28.8066C63.875 27.134 64.7729 24.8654 64.7729 22.5C64.7729 20.1345 63.875 17.866 62.2767 16.1933C61.0293 14.888 59.4351 14.029 57.7207 13.7148C56.9175 13.5675 56.2502 14.243 56.2502 15.0596C56.2502 15.8761 56.9239 16.5189 57.7107 16.7373C58.6739 17.0046 59.5619 17.5342 60.2787 18.2843C61.3471 19.4023 61.9473 20.9188 61.9473 22.5C61.9473 24.0812 61.3471 25.5976 60.2787 26.7157C59.5619 27.4657 58.6739 27.9953 57.7107 28.2627C56.9239 28.4811 56.2502 29.1238 56.2502 29.9404Z" fill="#49E4EB"/>
<path d="M58.5227 37.5171C58.5227 38.7466 59.5244 39.7594 60.7417 39.5863C64.2923 39.0814 67.6116 37.3743 70.1739 34.6929C73.264 31.4592 75 27.0733 75 22.5001C75 17.9269 73.264 13.541 70.1739 10.3073C67.6116 7.62586 64.2923 5.91877 60.7417 5.41384C59.5244 5.24074 58.5227 6.25356 58.5227 7.48308C58.5227 8.71261 59.5283 9.68806 60.7356 9.92066C63.1547 10.3867 65.4018 11.6101 67.1654 13.4557C69.4576 15.8544 70.7453 19.1078 70.7453 22.5001C70.7453 25.8924 69.4576 29.1458 67.1654 31.5445C65.4018 33.3901 63.1547 34.6134 60.7356 35.0795C59.5283 35.3121 58.5227 36.2876 58.5227 37.5171Z" fill="#49E4EB"/>
<path d="M2.76441 13.6866L22.4999 7.62042H22.524L45.072 0.665845C45.6462 0.485843 46.2526 0.451798 46.8416 0.566489C47.4307 0.68118 47.9857 0.941356 48.4614 1.32577C48.9433 1.69984 49.3341 2.18948 49.6016 2.75435C49.8691 3.31921 50.0056 3.94311 49.9998 4.57462V39.7536C49.9998 40.8263 49.5979 41.8554 48.8818 42.6163C48.1657 43.3772 47.1936 43.808 46.1777 43.8147C45.8044 43.8157 45.4326 43.7645 45.072 43.6624L24.9999 37.4693V40.4389C24.9999 41.516 24.5947 42.5489 23.8734 43.3105C23.1521 44.0721 22.1738 44.5 21.1538 44.5H13.4615C12.4414 44.5 11.4632 44.0721 10.7419 43.3105C10.0206 42.5489 9.61535 41.516 9.61535 40.4389V32.7483L2.76441 30.6416C1.96684 30.3905 1.26717 29.8747 0.769203 29.1706C0.271233 28.4664 0.00149155 27.6116 0 26.7328V17.5954C0.00149155 16.7167 0.271233 15.8618 0.769203 15.1577C1.26717 14.4536 1.96684 13.9377 2.76441 13.6866ZM13.4615 40.4389H21.1538V36.3017L13.4615 33.9158V40.4389ZM3.84614 26.7328L12.1153 29.271L21.1538 32.063V12.2653L3.84614 17.5954V26.7328Z" fill="#49E4EB"/>
</svg>
