<svg width="32" height="32" viewBox="0 0 32 32" fill="none" xmlns="http://www.w3.org/2000/svg">
<g clip-path="url(#clip0_1_210)">
<path d="M15.1662 1.61063C22.2788 1.61063 27.8004 1.91665 29.5898 2.23555C29.8875 3.84296 30.2716 8.6362 30.374 15.3235C30.5084 23.9275 30.0891 28.4695 29.721 29.7677C28.6295 30.0221 25.0732 30.3894 17.2469 30.3894C16.3986 30.3894 15.5344 30.3862 14.6765 30.3765C8.0345 30.2992 3.80924 29.9899 2.3496 29.7483C2.0263 28.2086 1.63578 23.5055 1.60057 16.0612C1.56536 8.00161 1.98149 3.56271 2.30799 2.22911C3.58517 1.95208 7.64399 1.61063 15.1662 1.61063ZM15.1662 0C8.43142 0 1.91427 0.293135 1.13644 0.959936C-0.496055 2.36118 -0.252782 29.5841 1.13644 31.0465C1.61658 31.549 7.95128 31.9066 14.6605 31.9839C15.5216 31.9936 16.389 31.9968 17.2501 31.9968C23.7736 31.9968 29.9835 31.7198 30.851 31.0465C31.8144 30.296 32.0929 22.6809 31.9777 15.2978C31.8689 8.30441 31.4079 1.52043 30.851 0.959936C30.2492 0.354339 22.5733 0 15.1662 0Z" fill="#303030"/>
<path d="M10.1759 19.9976C10.5376 20.4164 10.9441 20.7868 11.3858 21.1218C12.074 21.6437 12.8295 22.0463 13.6425 22.3362C13.7001 22.3556 13.7001 22.3717 13.6649 22.4168C13.4632 22.6841 13.2616 22.9547 13.0631 23.2253C13.0343 23.264 13.0055 23.2768 12.9607 23.2736C12.4998 23.2543 12.0452 23.1802 11.5971 23.0771C10.6432 22.8549 9.75333 22.4909 8.93709 21.94C8.45374 21.6147 8.01841 21.2313 7.6343 20.7933C7.61189 20.7675 7.60869 20.7449 7.61189 20.7127C7.6407 20.2811 7.67591 19.8526 7.72072 19.4242C7.76874 18.9732 7.82956 18.5223 7.89998 18.0745C8.12725 16.6765 8.46015 15.3042 8.95309 13.9738C9.24118 13.1943 9.57408 12.4341 9.99341 11.719C10.0638 11.5966 10.1535 11.4999 10.2687 11.4194C11.1073 10.8299 12.0132 10.3918 12.9959 10.1083C13.396 9.99236 13.7993 9.91505 14.2123 9.86996C14.2539 9.86673 14.2795 9.87318 14.2987 9.91828C14.3435 10.0214 14.3947 10.1212 14.4491 10.2211C14.4715 10.263 14.4715 10.2758 14.4203 10.2887C13.9242 10.4047 13.4376 10.5561 12.9671 10.7558C12.2341 11.0683 11.5715 11.4903 10.9601 11.9992C10.8449 12.0958 10.7328 12.1957 10.6176 12.2923C10.6048 12.302 10.5888 12.3117 10.5856 12.331C10.6144 12.3407 10.6336 12.3181 10.6528 12.3085C11.2354 12.0121 11.8244 11.719 12.4357 11.4806C13.1464 11.2036 13.873 10.9974 14.6252 10.8718C15.5023 10.7236 16.3889 10.6817 17.2756 10.7107C18.4663 10.7494 19.6283 10.9491 20.755 11.3517C21.4913 11.6159 22.1923 11.9541 22.8869 12.3117C22.9061 12.3213 22.9285 12.331 22.9477 12.3407C22.9541 12.3439 22.9605 12.3503 22.9669 12.3407C22.9669 12.3407 22.9605 12.3342 22.9573 12.331C22.762 12.1442 22.554 11.9734 22.3459 11.8059C21.6257 11.2197 20.8126 10.8073 19.9324 10.5207C19.6603 10.4337 19.3882 10.3564 19.1129 10.2855C19.0713 10.2758 19.0681 10.2662 19.0873 10.2275C19.1385 10.1309 19.1898 10.031 19.2346 9.93116C19.2602 9.87318 19.2922 9.86351 19.3498 9.86996C19.6731 9.90539 19.9932 9.95693 20.3069 10.0375C21.424 10.3209 22.4355 10.8267 23.3734 11.4935C23.4182 11.5257 23.4502 11.5611 23.479 11.6062C23.7991 12.1216 24.0584 12.666 24.2921 13.2233C24.6474 14.0673 24.9355 14.937 25.1692 15.8228C25.3868 16.6572 25.5565 17.5011 25.6845 18.3548C25.7805 18.9958 25.851 19.6368 25.9022 20.2843C25.915 20.426 25.9214 20.5678 25.931 20.7095C25.9342 20.7514 25.9214 20.7804 25.8958 20.8094C25.182 21.6179 24.3209 22.2138 23.3318 22.6326C22.714 22.8967 22.0706 23.0771 21.408 23.1866C21.1295 23.2317 20.8511 23.2672 20.5694 23.2768C20.531 23.2768 20.5086 23.2704 20.4862 23.2382C20.2813 22.9612 20.0764 22.6841 19.8684 22.4103C19.8332 22.3652 19.8524 22.3588 19.894 22.3427C20.6718 22.0656 21.3952 21.6855 22.061 21.1959C22.538 20.8448 22.9765 20.4486 23.3638 20.0008C23.3702 19.9944 23.3734 19.9879 23.3798 19.9815C23.3862 19.9783 23.3926 19.9783 23.399 19.975C23.3958 19.9718 23.3894 19.9686 23.3862 19.9686C23.3766 19.9686 23.3862 19.975 23.383 19.9815C23.367 19.9654 23.3606 19.9815 23.3542 19.9912C23.191 20.1039 23.0277 20.2231 22.8613 20.3326C22.1186 20.8255 21.3248 21.2056 20.4765 21.4762C19.9036 21.6598 19.3178 21.7918 18.7224 21.882C17.8486 22.0109 16.9747 22.0431 16.0944 22.0044C14.9389 21.9529 13.8089 21.7564 12.7174 21.3602C11.8404 21.0413 11.0241 20.6032 10.2719 20.0491C10.2431 20.0298 10.2143 20.0105 10.1855 19.9879C10.1759 19.9783 10.1695 19.9622 10.1567 19.9815C10.1567 19.9783 10.1663 19.9718 10.1535 19.9686C10.1503 19.9686 10.1439 19.9718 10.1406 19.975C10.1406 19.975 10.1406 19.9718 10.1439 19.9718C10.1439 19.9718 10.1439 19.975 10.1406 19.975C10.1471 19.9783 10.1535 19.9783 10.1567 19.9815C10.1631 19.9847 10.1695 19.9912 10.1759 19.9976ZM12.6054 17.3852C12.6086 17.4818 12.6086 17.5655 12.6214 17.6461C12.6822 18.0874 12.8615 18.4643 13.2008 18.7574C13.7385 19.2213 14.5292 19.1826 15.0189 18.6704C15.2878 18.3902 15.451 18.0584 15.4991 17.6718C15.5759 17.0824 15.4254 16.5605 15.0061 16.1289C14.4812 15.5909 13.6265 15.6006 13.1047 16.145C12.7686 16.4961 12.615 16.9181 12.6054 17.3852ZM20.9343 17.4721C20.9343 16.9728 20.803 16.5831 20.531 16.2513C20.2589 15.9195 19.91 15.7327 19.4811 15.7294C19.0521 15.7262 18.7032 15.9163 18.4279 16.2416C18.2071 16.5025 18.0758 16.8086 18.0374 17.15C17.967 17.7814 18.1334 18.329 18.6168 18.7542C19.1449 19.2181 19.9356 19.1794 20.4253 18.6737C20.7742 18.3258 20.9279 17.8973 20.9343 17.4721ZM10.5824 12.3342C10.5792 12.331 10.5792 12.331 10.5792 12.331C10.5792 12.3342 10.576 12.3374 10.576 12.3407L10.5792 12.3439C10.5792 12.3407 10.5792 12.3374 10.5824 12.3342Z" fill="#303030"/>
</g>
<defs>
<clipPath id="clip0_1_210">
<rect width="32" height="32" fill="white"/>
</clipPath>
</defs>
</svg>
