<svg width="94" height="45" viewBox="0 0 94 45" fill="none" xmlns="http://www.w3.org/2000/svg">
<path d="M25.6667 7.5H2.33333C1.71449 7.5 1.121 7.75323 0.683417 8.20399C0.245833 8.65475 0 9.26611 0 9.90357V18.7217C0 32.1517 11.0542 36.6133 13.2708 37.3644C13.7411 37.5452 14.2589 37.5452 14.7292 37.3644C16.9458 36.6133 28 32.1517 28 18.7217V9.90357C28 9.26611 27.7542 8.65475 27.3166 8.20399C26.879 7.75323 26.2855 7.5 25.6667 7.5ZM19.9062 21.2004L15.8812 22.5524L18.375 26.0826C18.465 26.2095 18.5297 26.3535 18.5652 26.5064C18.6008 26.6592 18.6065 26.8178 18.5821 26.9729C18.5577 27.128 18.5036 27.2766 18.423 27.41C18.3424 27.5434 18.2368 27.659 18.1125 27.7501C17.9166 27.907 17.6752 27.9916 17.4271 27.9905C17.2427 27.9887 17.0611 27.9431 16.8967 27.8571C16.7323 27.7711 16.5894 27.6471 16.4792 27.4947L14 23.9645L11.5208 27.4947C11.4106 27.6471 11.2677 27.7711 11.1033 27.8571C10.9389 27.9431 10.7573 27.9887 10.5729 27.9905C10.3248 27.9916 10.0834 27.907 9.8875 27.7501C9.76317 27.659 9.65763 27.5434 9.57702 27.41C9.4964 27.2766 9.44232 27.128 9.4179 26.9729C9.39347 26.8178 9.39921 26.6592 9.43476 26.5064C9.47031 26.3535 9.53498 26.2095 9.625 26.0826L12.1187 22.5524L8.09375 21.2004C7.80049 21.1037 7.5562 20.8916 7.41415 20.6102C7.2721 20.3288 7.2438 20.0009 7.33542 19.6981C7.43237 19.3949 7.64112 19.1431 7.91665 18.997C8.19218 18.8509 8.51242 18.8221 8.80833 18.917L12.8333 20.269V15.9125C12.8333 15.5938 12.9562 15.2881 13.175 15.0627C13.3938 14.8373 13.6906 14.7107 14 14.7107C14.3094 14.7107 14.6062 14.8373 14.825 15.0627C15.0438 15.2881 15.1667 15.5938 15.1667 15.9125V20.269L19.1917 18.917C19.4876 18.8221 19.8078 18.8509 20.0833 18.997C20.3589 19.1431 20.5676 19.3949 20.6646 19.6981C20.7562 20.0009 20.7279 20.3288 20.5858 20.6102C20.4438 20.8916 20.1995 21.1037 19.9062 21.2004Z" fill="#47CFFF"/>
<path d="M40.4955 2.7V42.3C40.4955 42.8835 40.2587 43.4431 39.8372 43.8556C39.4156 44.2682 38.8439 44.5 38.2478 44.5C37.6516 44.5 37.0799 44.2682 36.6584 43.8556C36.2368 43.4431 36 42.8835 36 42.3V2.7C36 2.11652 36.2368 1.55695 36.6584 1.14437C37.0799 0.731785 37.6516 0.5 38.2478 0.5C38.8439 0.5 39.4156 0.731785 39.8372 1.14437C40.2587 1.55695 40.4955 2.11652 40.4955 2.7ZM64.097 17.6875L58.4776 19.475V13.7C58.4776 13.1165 58.2408 12.5569 57.8192 12.1444C57.3977 11.7318 56.826 11.5 56.2298 11.5C55.6337 11.5 55.062 11.7318 54.6404 12.1444C54.2189 12.5569 53.9821 13.1165 53.9821 13.7V19.475L48.3627 17.6875C48.0843 17.5937 47.7896 17.5558 47.4959 17.5759C47.2023 17.5961 46.9158 17.6739 46.6536 17.8048C46.3913 17.9357 46.1587 18.117 45.9696 18.3378C45.7805 18.5586 45.6388 18.8144 45.553 19.09C45.4568 19.3643 45.4177 19.6546 45.438 19.9439C45.4582 20.2332 45.5375 20.5156 45.671 20.7745C45.8046 21.0334 45.9897 21.2634 46.2156 21.4511C46.4414 21.6389 46.7033 21.7804 46.9859 21.8675L52.6053 23.655L49.1213 28.33C48.9471 28.5645 48.822 28.8303 48.7531 29.1123C48.6842 29.3942 48.673 29.6867 48.72 29.9729C48.767 30.2591 48.8713 30.5334 49.027 30.7801C49.1826 31.0267 49.3866 31.2408 49.627 31.41C50.1133 31.7472 50.7154 31.8842 51.3038 31.7917C51.8922 31.6991 52.42 31.3844 52.7739 30.915L56.2298 26.24L59.6858 30.915C60.0396 31.3844 60.5675 31.6991 61.1559 31.7917C61.7443 31.8842 62.3463 31.7472 62.8326 31.41C63.0731 31.2408 63.277 31.0267 63.4327 30.7801C63.5883 30.5334 63.6927 30.2591 63.7397 29.9729C63.7867 29.6867 63.7754 29.3942 63.7065 29.1123C63.6377 28.8303 63.5126 28.5645 63.3384 28.33L59.8543 23.655L65.4737 21.8675C65.7563 21.7804 66.0183 21.6389 66.2441 21.4511C66.4699 21.2634 66.6551 21.0334 66.7886 20.7745C66.9222 20.5156 67.0014 20.2332 67.0217 19.9439C67.042 19.6546 67.0029 19.3643 66.9067 19.09C66.8208 18.8144 66.6791 18.5586 66.49 18.3378C66.3009 18.117 66.0683 17.9357 65.8061 17.8048C65.5439 17.6739 65.2574 17.5961 64.9637 17.5759C64.6701 17.5558 64.3753 17.5937 64.097 17.6875ZM93.8798 19.09C93.7939 18.8144 93.6522 18.5586 93.4631 18.3378C93.274 18.117 93.0414 17.9357 92.7792 17.8048C92.517 17.6739 92.2305 17.5961 91.9368 17.5759C91.6432 17.5558 91.3484 17.5937 91.0701 17.6875L85.4507 19.475V13.7C85.4507 13.1165 85.2139 12.5569 84.7923 12.1444C84.3708 11.7318 83.7991 11.5 83.2029 11.5C82.6068 11.5 82.0351 11.7318 81.6135 12.1444C81.192 12.5569 80.9552 13.1165 80.9552 13.7V19.475L75.3358 17.6875C75.0574 17.5937 74.7627 17.5558 74.469 17.5759C74.1754 17.5961 73.8889 17.6739 73.6267 17.8048C73.3644 17.9357 73.1318 18.117 72.9427 18.3378C72.7536 18.5586 72.6119 18.8144 72.5261 19.09C72.4299 19.3643 72.3908 19.6546 72.4111 19.9439C72.4313 20.2332 72.5106 20.5156 72.6441 20.7745C72.7777 21.0334 72.9628 21.2634 73.1887 21.4511C73.4145 21.6389 73.6764 21.7804 73.959 21.8675L79.5784 23.655L76.0944 28.33C75.9202 28.5645 75.7951 28.8303 75.7262 29.1123C75.6573 29.3942 75.6461 29.6867 75.6931 29.9729C75.7401 30.2591 75.8444 30.5334 76.0001 30.7801C76.1557 31.0267 76.3597 31.2408 76.6001 31.41C77.0864 31.7472 77.6885 31.8842 78.2769 31.7917C78.8653 31.6991 79.3931 31.3844 79.747 30.915L83.2029 26.24L86.6589 30.915C87.0127 31.3844 87.5406 31.6991 88.129 31.7917C88.7174 31.8842 89.3194 31.7472 89.8057 31.41C90.0462 31.2408 90.2501 31.0267 90.4058 30.7801C90.5615 30.5334 90.6658 30.2591 90.7128 29.9729C90.7598 29.6867 90.7485 29.3942 90.6796 29.1123C90.6108 28.8303 90.4857 28.5645 90.3115 28.33L86.8274 23.655L92.4468 21.8675C92.7294 21.7804 92.9914 21.6389 93.2172 21.4511C93.443 21.2634 93.6282 21.0334 93.7617 20.7745C93.8953 20.5156 93.9745 20.2332 93.9948 19.9439C94.0151 19.6546 93.976 19.3643 93.8798 19.09Z" fill="#47CFFF"/>
</svg>
