<svg width="32" height="32" viewBox="0 0 32 32" fill="none" xmlns="http://www.w3.org/2000/svg">
<path d="M16.8803 1.60048C24.4289 1.60048 28.5077 1.991 29.7771 2.30789C30.1669 4.04921 30.4891 10.3327 30.3666 18.5464C30.2764 24.7722 29.9897 28.2933 29.7642 29.5897C28.614 29.8009 25.708 30.0922 20.711 30.2683C18.3785 30.3515 15.9235 30.3963 13.6167 30.3963C6.50304 30.3963 3.24262 29.9962 2.23098 29.7177C1.92814 28.4373 1.5673 24.0936 1.61563 15.9056C1.65751 9.23477 1.96035 4.04921 2.25031 2.3495C4.01584 1.96859 9.63782 1.60048 16.8803 1.60048ZM16.8803 0C9.44129 0 1.71228 0.412924 0.951943 1.13634C-0.108017 2.14464 -0.510738 28.9751 0.951943 30.8509C1.5963 31.6799 7.32459 32 13.6135 32C15.9976 32 18.4654 31.9552 20.7658 31.872C26.1268 31.6831 30.5889 31.299 31.04 30.8509C31.5522 30.3419 31.8841 24.7658 31.9743 18.572C32.0903 10.7968 31.8197 2.04541 31.04 1.13634C30.3699 0.352106 23.7459 0 16.8803 0Z" fill="#303030"/>
<path d="M19.9539 15.9984H17.4409V25.1051H14.0065V15.9984H11.7158V12.8615L14.0065 12.8583L14.0033 11.0177C14.0033 8.45053 14.7024 6.89487 17.7405 6.89487H20.2728V10.0382H18.6909C17.5118 10.0382 17.4441 10.4831 17.4441 11.2898V12.8583H20.2922L19.9539 15.9984Z" fill="#303030"/>
<path d="M19.9539 15.9984H17.4409V25.1051H14.0065V15.9984H11.7158V12.8615L14.0065 12.8583L14.0033 11.0177C14.0033 8.45053 14.7024 6.89487 17.7405 6.89487H20.2728V10.0382H18.6909C17.5118 10.0382 17.4441 10.4831 17.4441 11.2898V12.8583H20.2922L19.9539 15.9984Z" fill="#303030"/>
</svg>
