<svg width="32" height="32" viewBox="0 0 32 32" fill="currentColor" xmlns="http://www.w3.org/2000/svg">
<g clip-path="url(#clip0_1_245)">
<path d="M15.1662 1.61095C22.282 1.61095 27.8004 1.91704 29.5898 2.236C29.9131 3.97906 30.326 9.4112 30.39 16.7668C30.4572 24.973 30.0251 28.6718 29.7178 29.7737C28.6391 30.025 25.1436 30.389 17.4837 30.389C17.1989 30.389 16.914 30.389 16.6259 30.3858C9.25727 30.3665 4.0269 30.0314 2.3496 29.7511C2.0263 28.211 1.63578 23.5103 1.60057 16.0612C1.56536 8.00322 1.98149 3.56343 2.30799 2.22956C3.58517 1.95248 7.64399 1.61095 15.1662 1.61095ZM15.1662 0C8.43142 0 1.91427 0.293194 1.13643 0.960129C-0.496055 2.36166 -0.252782 29.59 1.13643 31.0495C1.66459 31.6037 9.24127 31.9774 16.6259 31.9968C16.914 31.9968 17.2021 32 17.4869 32C23.9241 32 29.9931 31.7197 30.8509 31.0495C31.7504 30.3504 32.0513 23.652 31.9937 16.7507C31.9297 9.27588 31.4463 1.5594 30.8509 0.960129C30.2492 0.35441 22.5733 0 15.1662 0Z" fill="#fff"/>
<path d="M16.0017 11.2767C13.4153 11.2767 11.3091 13.3967 11.3091 16C11.3091 18.6033 13.4153 20.7233 16.0017 20.7233C18.5881 20.7233 20.6943 18.6033 20.6943 16C20.6943 13.3967 18.5881 11.2767 16.0017 11.2767ZM16.0017 19.0995C14.3052 19.0995 12.9256 17.7108 12.9256 16.0032C12.9256 14.2956 14.3052 12.907 16.0017 12.907C17.6982 12.907 19.0778 14.2956 19.0778 16.0032C19.0778 17.7108 17.6982 19.0995 16.0017 19.0995Z" fill="#fff"/>
<path d="M20.8897 9.89771C20.5792 9.89771 20.2719 10.0234 20.0542 10.2457C19.8334 10.468 19.7053 10.7741 19.7053 11.0898C19.7053 11.4023 19.8334 11.7116 20.0542 11.934C20.2719 12.1563 20.5792 12.2819 20.8897 12.2819C21.2002 12.2819 21.5075 12.153 21.7283 11.934C21.9492 11.7116 22.074 11.4023 22.074 11.0898C22.074 10.7741 21.9492 10.468 21.7283 10.2457C21.5075 10.0266 21.2034 9.89771 20.8897 9.89771Z" fill="#fff"/>
<path d="M20.0798 6.83688H11.9205C9.1485 6.83688 6.89502 9.10511 6.89502 11.8953V20.1079C6.89502 22.8981 9.1485 25.1663 11.9205 25.1663H20.0798C22.8518 25.1663 25.1053 22.8981 25.1053 20.1079V11.8953C25.1053 9.10511 22.8518 6.83688 20.0798 6.83688ZM23.492 20.1079C23.492 21.9992 21.9619 23.5393 20.083 23.5393H11.9205C10.0416 23.5393 8.5115 21.9992 8.5115 20.1079V11.8953C8.5115 10.004 10.0416 8.46395 11.9205 8.46395H20.0798C21.9619 8.46395 23.4888 10.004 23.4888 11.8953V20.1079H23.492Z" fill="#fff"/>
</g>
<defs>
<clipPath id="clip0_1_245">
<rect width="32" height="32" fill="white"/>
</clipPath>
</defs>
</svg>
