<svg width="32" height="32" viewBox="0 0 32 32" fill="none" xmlns="http://www.w3.org/2000/svg">
<g clip-path="url(#clip0_1_216)">
<path d="M15.1662 1.61063C22.2788 1.61063 27.8004 1.91665 29.5898 2.23555C29.8875 3.84296 30.2716 8.6362 30.374 15.3235C30.5084 23.9275 30.0891 28.4695 29.721 29.7677C28.6295 30.0222 25.0732 30.3894 17.2469 30.3894C16.3986 30.3894 15.5344 30.3862 14.6765 30.3765C8.0345 30.2992 3.80924 29.9899 2.3496 29.7483C2.0263 28.2086 1.63578 23.5055 1.60057 16.0612C1.56536 8.00161 1.98149 3.56271 2.30799 2.22911C3.58517 1.95208 7.64399 1.61063 15.1662 1.61063ZM15.1662 0C8.43142 0 1.91427 0.293135 1.13643 0.959936C-0.496055 2.36118 -0.252782 29.5841 1.13643 31.0465C1.61658 31.549 7.95128 31.9066 14.6605 31.9839C15.5215 31.9936 16.389 31.9968 17.2501 31.9968C23.7736 31.9968 29.9835 31.7198 30.8509 31.0465C31.8144 30.296 32.0929 22.6809 31.9777 15.2978C31.8689 8.30441 31.4079 1.52043 30.8509 0.959936C30.2492 0.354339 22.5733 0 15.1662 0Z" fill="#303030"/>
<path d="M9.11963 15.5265V22.7228H12.5287V14.9466V12.9269H9.11963V15.5265Z" fill="#303030"/>
<path d="M10.8225 8.02737C9.88146 8.02737 9.11963 8.79403 9.11963 9.74108C9.11963 10.6881 9.88146 11.4548 10.8225 11.4548C11.7636 11.4548 12.5255 10.6881 12.5255 9.74108C12.5287 8.79726 11.7636 8.02737 10.8225 8.02737Z" fill="#303030"/>
<path d="M23.6488 15.9356C23.4183 14.0898 22.5765 12.9269 20.0957 12.9269C18.6233 12.9269 17.6374 13.4777 17.2309 14.2476H17.1893V12.9269H14.4749V14.8081V22.726H17.3109V17.8683C17.3109 16.5863 17.551 15.3493 19.1258 15.3493C20.6783 15.3493 20.8032 16.8118 20.8032 17.9521V22.726H23.7256V17.34C23.7224 16.8375 23.7032 16.3672 23.6488 15.9356Z" fill="#303030"/>
</g>
<defs>
<clipPath id="clip0_1_216">
<rect width="32" height="32" fill="white"/>
</clipPath>
</defs>
</svg>
