<svg width="21" height="26" viewBox="0 0 21 26" fill="none" xmlns="http://www.w3.org/2000/svg">
<path fill-rule="evenodd" clip-rule="evenodd" d="M10.4917 15.9536C14.7672 15.9536 20.4517 16.435 20.4517 20.6003C20.4517 24.988 13.8281 25.2513 10.9869 25.2671L9.9553 25.2671C6.92589 25.2514 0.531738 24.9896 0.531738 20.6266C0.531738 16.2339 7.15541 15.9704 9.99661 15.9546L10.338 15.9536C10.3912 15.9536 10.4425 15.9536 10.4917 15.9536ZM10.4917 17.9214C6.84594 17.9214 2.4996 18.3898 2.4996 20.6266C2.4996 22.4003 5.18901 23.3002 10.4917 23.3002C15.7945 23.3002 18.4839 22.3911 18.4839 20.6003C18.4839 18.8227 15.7945 17.9214 10.4917 17.9214ZM10.4917 0.26709C14.2057 0.26709 17.2284 3.28972 17.2284 7.00373C17.2362 8.79317 16.5422 10.4829 15.2776 11.7555C14.0155 13.0293 12.3297 13.7338 10.5363 13.7404H10.4917C6.77641 13.7404 3.75378 10.7177 3.75378 7.00373C3.75378 3.28972 6.77641 0.26709 10.4917 0.26709ZM10.4917 2.23495C7.86136 2.23495 5.72164 4.37467 5.72164 7.00373C5.72164 9.63279 7.86136 11.7725 10.4917 11.7725H10.5324C11.7971 11.7673 12.9883 11.27 13.8817 10.3688C14.7764 9.47011 15.2658 8.27497 15.2606 7.00767C15.2606 4.37467 13.1208 2.23495 10.4917 2.23495Z" fill="#303030"/>
</svg>
