<svg width="32" height="32" viewBox="0 0 32 32" fill="none" xmlns="http://www.w3.org/2000/svg">
<g clip-path="url(#clip0_1_225)">
<path d="M14.6731 1.61079C21.7344 1.61079 27.7714 1.92973 29.6472 2.24867C30.0025 3.94644 30.409 9.41991 30.3994 17.1453C30.3898 24.5227 30.0025 28.5175 29.692 29.7707C28.418 30.0477 24.3592 30.3892 16.8369 30.3892H16.4016C9.50995 30.3763 4.15794 30.0735 2.40702 29.7642C2.09972 28.1083 1.70601 23.1181 1.61638 16.1466C1.51075 7.87033 1.92367 3.49542 2.27578 2.23256C3.3641 1.97805 6.89796 1.61079 14.6731 1.61079ZM14.6731 0C8.17835 0 2.0133 0.277056 1.14904 0.950367C-0.726724 2.40975 -0.000105638 29.8802 1.14904 31.0367C1.73802 31.6295 9.12903 31.9839 16.3984 31.9968C16.5457 31.9968 16.6897 31.9968 16.8369 31.9968C23.5718 31.9968 30.0825 31.7036 30.8636 31.0367C31.6382 30.3731 31.9903 23.917 31.9999 17.1453C32.0095 9.62609 31.5934 1.7171 30.8636 0.950367C30.3226 0.380147 22.2722 0 14.6731 0Z" fill="#303030"/>
<path d="M17.5059 14.771L23.1428 8.14417H21.8272L16.9009 13.8947L12.9478 8.14417H8.33838L14.321 16.9133L8.33838 23.8977H9.7404L14.926 17.7993L19.084 23.8977H23.7798L17.5059 14.771ZM19.753 22.8314L10.3902 9.21051H12.3588L21.648 22.8281H19.753V22.8314Z" fill="#303030"/>
<path d="M21.6511 22.8314H19.7529L10.3901 9.21051H12.3587L21.6511 22.8314Z" fill="white"/>
</g>
<defs>
<clipPath id="clip0_1_225">
<rect width="32" height="32" fill="white"/>
</clipPath>
</defs>
</svg>
